PathFileType	3	(X/Y/Z)	D:\VICON_DB\Goncalves\Pilot01\09-03-2026\bw_sq_01.trc
DataRate	CameraRate	NumFrames	NumMarkers	Units	OrigDataRate	OrigDataStartFrame	OrigNumFrames
200.0	200.0	10	34	mm	200.0	192	767	
Frame#	Time	LASI			RASI			LPSI			RPSI			LTHI			LTHAP			LTHAD			LKNE			LKNM			LTIB			LTIAP			LTIAD			LANK			LMED			LHEE			LTOE			LFMH			LSMH			LVMH			RTHI			RTHAP			RTHAD			RKNE			RKNM			RTIB			RTIAP			RTIAD			RANK			RMED			RHEE			RTOE			RFMH			RSMH			RVMH			
		X1	Y1	Z1	X2	Y2	Z2	X3	Y3	Z3	X4	Y4	Z4	X5	Y5	Z5	X6	Y6	Z6	X7	Y7	Z7	X8	Y8	Z8	X9	Y9	Z9	X10	Y10	Z10	X11	Y11	Z11	X12	Y12	Z12	X13	Y13	Z13	X14	Y14	Z14	X15	Y15	Z15	X16	Y16	Z16	X17	Y17	Z17	X18	Y18	Z18	X19	Y19	Z19	X20	Y20	Z20	X21	Y21	Z21	X22	Y22	Z22	X23	Y23	Z23	X24	Y24	Z24	X25	Y25	Z25	X26	Y26	Z26	X27	Y27	Z27	X28	Y28	Z28	X29	Y29	Z29	X30	Y30	Z30	X31	Y31	Z31	X32	Y32	Z32	X33	Y33	Z33	X34	Y34	Z34	
192	0.955	125.17552	900.33276	-1068.2379	126.36893	899.77106	-1328.7869				322.77698	945.45898	-1224.4919	126.38837	695.11566	-1035.3871	145.62683	767.69531	-1019.7655	167.75569	629.89178	-1010.1697	215.06529	473.66922	-1026.8909				257.91327	280.6528	-1007.0628	197.77541	354.23343	-1063.6251	218.20073	251.88434	-1036.1108	285.45059	71.059189	-1030.2732				328.64221	63.509068	-1082.813	205.29669	71.356857	-1051.6826	148.27115	44.302849	-1077.4514				163.00443	25.355114	-996.17322	169.87897	624.28992	-1378.8562	134.61594	750.03247	-1357.6979	116.99274	659.1781	-1334.0421	216.45937	488.71918	-1360.8293				240.96718	294.38812	-1378.7029	199.93144	343.14084	-1323.8297	209.39214	261.89139	-1326.0863	294.67697	62.480049	-1351.844				331.08368	58.816319	-1310.3914	202.55521	68.726662	-1334.5852	152.39525	48.959675	-1309.1692				164.95886	20.328014	-1383.1033
193	0.96	125.68748	900.29004	-1068.3168	126.90596	899.72852	-1328.8217				323.06143	945.99835	-1224.5984	126.59525	695.26709	-1035.4821	145.97284	767.7738	-1019.8337	167.67796	629.96692	-1010.1123	214.3967	473.60638	-1026.9263				257.4187	280.58438	-1007.0811	197.09001	354.0762	-1063.6115	217.75349	251.74141	-1036.1113	285.41962	71.07811	-1030.2711				328.57706	63.56731	-1082.8208	205.24373	71.355164	-1051.7107	148.24962	44.299889	-1077.4467				162.99936	25.352205	-996.16656	169.92918	624.35828	-1378.8873	135.03488	750.14581	-1357.7207	117.13767	659.35773	-1334.0597	216.13904	488.68451	-1360.7393				240.61752	294.31058	-1378.6447	199.50993	343.02142	-1323.7688	209.09602	261.77643	-1326.0245	294.66028	62.490776	-1351.8274				331.04187	58.830635	-1310.3956	202.54808	68.729332	-1334.5717	152.39275	48.956715	-1309.158				164.95706	20.334333	-1383.0967
194	0.965	126.22322	900.24109	-1068.389	127.45845	899.68402	-1328.8507				323.36694	946.5365	-1224.7118	126.82909	695.41772	-1035.5818	146.34671	767.84778	-1019.9066	167.61534	630.0423	-1010.0529	213.72278	473.53937	-1026.954				256.92047	280.51312	-1007.0942	196.39609	353.91422	-1063.5868	217.30214	251.59436	-1036.1056	285.39056	71.096214	-1030.2655				328.51193	63.624771	-1082.8276	205.19284	71.354591	-1051.7349	148.2282	44.297825	-1077.4409				162.99484	25.34906	-996.15881	169.97198	624.42719	-1378.9155	135.45482	750.26276	-1357.7347	117.27705	659.53894	-1334.0753	215.80507	488.64801	-1360.6466				240.25587	294.22986	-1378.5847	199.0741	342.89584	-1323.7062	208.79076	261.65631	-1325.9608	294.64267	62.502087	-1351.8109				330.99915	58.846104	-1310.3995	202.54028	68.732735	-1334.5585	152.38969	48.953747	-1309.1467				164.95705	20.338242	-1383.0879
195	0.97	126.78267	900.18561	-1068.4547	128.02707	899.63751	-1328.8738				323.69495	947.07056	-1224.8314	127.09008	695.56696	-1035.6851	146.74895	767.91656	-1019.984	167.56905	630.11749	-1009.9914	213.04593	473.46796	-1026.9729				256.41989	280.43878	-1007.1025	195.69514	353.74744	-1063.5508	216.84776	251.44327	-1036.0934	285.36313	71.11348	-1030.2561				328.44705	63.681206	-1082.8341	205.14458	71.354919	-1051.755	148.20699	44.296597	-1077.4336				162.99097	25.34561	-996.1499	170.0069	624.49561	-1378.9398	135.8752	750.38245	-1357.7405	117.41014	659.7218	-1334.0881	215.45737	488.60934	-1360.5511				239.88248	294.14606	-1378.5229	198.6245	342.7641	-1323.6416	208.47661	261.53113	-1325.8956	294.62402	62.513969	-1351.795				330.95596	58.862766	-1310.4026	202.53189	68.736763	-1334.5457	152.38603	48.950718	-1309.1355				164.95869	20.340101	-1383.0765
196	0.975	127.36574	900.12292	-1068.514	128.61263	899.58875	-1328.891				324.04724	947.59723	-1224.9569	127.37812	695.71417	-1035.7904	147.1799	767.97961	-1020.0652	167.54018	630.19147	-1009.9271	212.36835	473.39197	-1026.9827				255.91832	280.36142	-1007.1052	194.98865	353.5759	-1063.5033	216.3914	251.28821	-1036.074	285.33716	71.129761	-1030.2438				328.38269	63.736446	-1082.8398	205.09943	71.355972	-1051.7706	148.18605	44.296089	-1077.4254				162.98779	25.341766	-996.13959	170.03362	624.56238	-1378.9597	136.29549	750.50446	-1357.7383	117.53611	659.90649	-1334.0975	215.09583	488.56833	-1360.4534				239.49744	294.0592	-1378.46	198.16176	342.62619	-1323.5754	208.15366	261.40082	-1325.8291	294.6044	62.526398	-1351.7793				330.91275	58.880589	-1310.4043	202.52303	68.741241	-1334.5326	152.38177	48.947556	-1309.1239				164.96167	20.34063	-1383.0634
197	0.98	127.97231	900.05273	-1068.5673	129.21599	899.53754	-1328.9027				324.42581	948.1131	-1225.0869	127.69277	695.85907	-1035.8962	147.63982	768.03668	-1020.1495	167.52966	630.26343	-1009.8593	211.69206	473.31146	-1026.983				255.41693	280.28076	-1007.1024	194.27797	353.39972	-1063.444	215.9342	251.12939	-1036.0476	285.31216	71.144836	-1030.2279				328.31903	63.79039	-1082.845	205.05759	71.357613	-1051.7819	148.16547	44.296181	-1077.4155				162.98537	25.337412	-996.12787	170.05196	624.6264	-1378.9742	136.71547	750.62817	-1357.7285	117.65401	660.09344	-1334.1033	214.7202	488.52472	-1360.3531				239.10074	293.96936	-1378.3955	197.68648	342.48203	-1323.5079	207.82169	261.26562	-1325.7617	294.58356	62.539345	-1351.7639				330.86969	58.899532	-1310.4045	202.51376	68.745949	-1334.5193	152.37686	48.94418	-1309.1117				164.96515	20.340895	-1383.0486
198	0.985	128.60231	899.97418	-1068.6155	129.83807	899.48358	-1328.9099				324.83282	948.61432	-1225.2209	128.03329	696.00128	-1036.001	148.1286	768.08716	-1020.2365	167.53813	630.33264	-1009.7873	211.01888	473.22647	-1026.974				254.9167	280.1969	-1007.0937	193.56447	353.21933	-1063.373	215.47717	250.96696	-1036.0137	285.28799	71.15847	-1030.2095				328.2562	63.843006	-1082.8495	205.0193	71.359726	-1051.7889	148.14525	44.29673	-1077.4045				162.98367	25.332428	-996.11469	170.06186	624.68634	-1378.983	137.13527	750.75323	-1357.7119	117.76274	660.28296	-1334.106	214.33026	488.47845	-1360.2511				238.69232	293.87653	-1378.3307	197.19904	342.33179	-1323.439	207.48044	261.12576	-1325.6934	294.56146	62.55275	-1351.7487				330.82693	58.919479	-1310.4031	202.50415	68.750687	-1334.5054	152.37126	48.940502	-1309.0992				164.96822	20.342138	-1383.033
199	0.99	129.25568	899.88672	-1068.6593	130.47989	899.42584	-1328.913				325.27026	949.09741	-1225.3574	128.39871	696.1405	-1036.103	148.64607	768.13104	-1020.3257	167.56607	630.39838	-1009.7104	210.35028	473.13724	-1026.9553				254.41852	280.10977	-1007.0789	192.84946	353.03494	-1063.2909	215.02129	250.80127	-1035.9725	285.26434	71.170433	-1030.1882				328.19415	63.894375	-1082.8535	204.98459	71.362144	-1051.7913	148.12546	44.297626	-1077.392				162.98265	25.326704	-996.1001	170.0632	624.7417	-1378.9858	137.55508	750.87958	-1357.6891	117.8612	660.47589	-1334.1068	213.92572	488.42944	-1360.1475				238.2722	293.78064	-1378.266	196.69989	342.17578	-1323.3691	207.12967	260.98145	-1325.6249	294.53802	62.566505	-1351.7334				330.78442	58.9403	-1310.4003	202.49414	68.755302	-1334.4906	152.36496	48.936451	-1309.0856				164.97008	20.345444	-1383.0173
200	0.995	129.9323	899.78961	-1068.7	131.14226	899.36389	-1328.9135				325.73978	949.55939	-1225.4958	128.78783	696.27655	-1036.2009	149.19179	768.16821	-1020.4161	167.61366	630.46008	-1009.6279	209.68761	473.04407	-1026.9276				253.92307	280.01932	-1007.0582	192.13412	352.84708	-1063.1974	214.56743	250.63261	-1035.924	285.24081	71.180466	-1030.165				328.13287	63.944668	-1082.8571	204.95346	71.364769	-1051.7897	148.10614	44.298771	-1077.3784				162.98228	25.320154	-996.08411	170.05585	624.79193	-1378.9832	137.9754	751.0072	-1357.6611	117.94854	660.67303	-1334.1062	213.50639	488.37784	-1360.0432				237.84044	293.68158	-1378.2015	196.1895	342.01443	-1323.2991	206.76944	260.83289	-1325.5562	294.51309	62.580399	-1351.718				330.74213	58.961823	-1310.3961	202.48366	68.759689	-1334.4752	152.35791	48.931999	-1309.0712				164.97006	20.351604	-1383.0021
201	1	130.63206	899.68237	-1068.7383	131.82613	899.29663	-1328.9124				326.2424	949.99768	-1225.6355	129.19925	696.40924	-1036.2932	149.76512	768.19867	-1020.5078	167.68088	630.51733	-1009.5395	209.03192	472.94736	-1026.8909				253.431	279.92566	-1007.0312	191.41977	352.65616	-1063.0933	214.11632	250.46146	-1035.8683	285.21701	71.188232	-1030.1406				328.07224	63.994087	-1082.8601	204.92577	71.367416	-1051.7841	148.08737	44.300114	-1077.3635				162.98247	25.312721	-996.06689	170.03964	624.83691	-1378.9752	138.39699	751.13611	-1357.6285	118.02442	660.87482	-1334.1055	213.0724	488.32364	-1359.9388				237.39728	293.57932	-1378.1378	195.66843	341.84842	-1323.2289	206.39995	260.68027	-1325.4877	294.48663	62.594219	-1351.7024				330.69995	58.983906	-1310.3911	202.47255	68.763817	-1334.459	152.35007	48.927158	-1309.0558				164.96765	20.361111	-1382.9877
